<?xml version="1.0" encoding="UTF-8" standalone="no"?>
<svg
   xmlns:dc="http://purl.org/dc/elements/1.1/"
   xmlns:cc="http://creativecommons.org/ns#"
   xmlns:rdf="http://www.w3.org/1999/02/22-rdf-syntax-ns#"
   xmlns:svg="http://www.w3.org/2000/svg"
   xmlns="http://www.w3.org/2000/svg"
   xmlns:xlink="http://www.w3.org/1999/xlink"
   id="svg8"
   version="1.1"
   viewBox="0 0 317.49999 169.33334"
   height="640"
   width="1200">
  <title
     id="title815">Profile Transparency</title>
  <defs
     id="defs2">
    <linearGradient
       id="linearGradient7428">
      <stop
         id="stop7424"
         offset="0"
         style="stop-color:#9b14cc;stop-opacity:1;" />
      <stop
         id="stop7426"
         offset="1"
         style="stop-color:#9b14cc;stop-opacity:0;" />
    </linearGradient>
    <linearGradient
       gradientUnits="userSpaceOnUse"
       y2="-169.7928"
       x2="318.33569"
       y1="0.16079712"
       x1="0"
       id="linearGradient7432"
       xlink:href="#linearGradient7428" />
    <linearGradient
       xlink:href="#linearGradient6723"
       id="linearGradient6729"
       x1="19.267349"
       y1="77.954544"
       x2="145.62103"
       y2="77.954544"
       gradientUnits="userSpaceOnUse"
       gradientTransform="translate(-3.060711,1.1420922)" />
    <linearGradient
       id="linearGradient6723">
      <stop
         style="stop-color:#ffff00;stop-opacity:1;"
         offset="0"
         id="stop6719" />
      <stop
         style="stop-color:#ffff00;stop-opacity:0;"
         offset="1"
         id="stop6721" />
    </linearGradient>
    <marker
       style="overflow:visible"
       id="marker15739"
       refX="0"
       refY="0"
       orient="auto">
      <path
         transform="matrix(0.4,0,0,0.4,2.96,0.4)"
         style="fill:#7e5cc5;fill-opacity:1;fill-rule:evenodd;stroke:#7e5cc5;stroke-width:1.00000003pt;stroke-opacity:1"
         d="m -2.5,-1 c 0,2.76 -2.24,5 -5,5 -2.76,0 -5,-2.24 -5,-5 0,-2.76 2.24,-5 5,-5 2.76,0 5,2.24 5,5 z"
         id="path15737" />
    </marker>
    <marker
       style="overflow:visible"
       id="marker15995"
       refX="0"
       refY="0"
       orient="auto">
      <path
         transform="matrix(0.4,0,0,0.4,2.96,0.4)"
         style="fill:#7e5cc5;fill-opacity:1;fill-rule:evenodd;stroke:#7e5cc5;stroke-width:1.00000003pt;stroke-opacity:1"
         d="m -2.5,-1 c 0,2.76 -2.24,5 -5,5 -2.76,0 -5,-2.24 -5,-5 0,-2.76 2.24,-5 5,-5 2.76,0 5,2.24 5,5 z"
         id="path15993" />
    </marker>
    <marker
       style="overflow:visible"
       id="marker15209"
       refX="0"
       refY="0"
       orient="auto">
      <path
         transform="matrix(0.4,0,0,0.4,2.96,0.4)"
         style="fill:#7e5cc5;fill-opacity:1;fill-rule:evenodd;stroke:#7e5cc5;stroke-width:1.00000003pt;stroke-opacity:1"
         d="m -2.5,-1 c 0,2.76 -2.24,5 -5,5 -2.76,0 -5,-2.24 -5,-5 0,-2.76 2.24,-5 5,-5 2.76,0 5,2.24 5,5 z"
         id="path15207" />
    </marker>
    <marker
       style="overflow:visible"
       id="marker15453"
       refX="0"
       refY="0"
       orient="auto">
      <path
         transform="matrix(0.4,0,0,0.4,2.96,0.4)"
         style="fill:#7e5cc5;fill-opacity:1;fill-rule:evenodd;stroke:#7e5cc5;stroke-width:1.00000003pt;stroke-opacity:1"
         d="m -2.5,-1 c 0,2.76 -2.24,5 -5,5 -2.76,0 -5,-2.24 -5,-5 0,-2.76 2.24,-5 5,-5 2.76,0 5,2.24 5,5 z"
         id="path15451" />
    </marker>
    <marker
       orient="auto"
       refY="0"
       refX="0"
       id="marker1992"
       style="overflow:visible">
      <path
         id="path1990"
         d="m -2.5,-1 c 0,2.76 -2.24,5 -5,5 -2.76,0 -5,-2.24 -5,-5 0,-2.76 2.24,-5 5,-5 2.76,0 5,2.24 5,5 z"
         style="fill:#7e5cc5;fill-opacity:1;fill-rule:evenodd;stroke:#7e5cc5;stroke-width:1.00000003pt;stroke-opacity:1"
         transform="matrix(0.4,0,0,0.4,2.96,0.4)" />
    </marker>
    <marker
       style="overflow:visible"
       id="marker2114"
       refX="0"
       refY="0"
       orient="auto">
      <path
         transform="matrix(0.4,0,0,0.4,2.96,0.4)"
         style="fill:#7e5cc5;fill-opacity:1;fill-rule:evenodd;stroke:#7e5cc5;stroke-width:1.00000003pt;stroke-opacity:1"
         d="m -2.5,-1 c 0,2.76 -2.24,5 -5,5 -2.76,0 -5,-2.24 -5,-5 0,-2.76 2.24,-5 5,-5 2.76,0 5,2.24 5,5 z"
         id="path2112" />
    </marker>
    <marker
       orient="auto"
       refY="0"
       refX="0"
       id="marker11554"
       style="overflow:visible">
      <path
         id="path11552"
         d="m -2.5,-1 c 0,2.76 -2.24,5 -5,5 -2.76,0 -5,-2.24 -5,-5 0,-2.76 2.24,-5 5,-5 2.76,0 5,2.24 5,5 z"
         style="fill:#7e5cc5;fill-opacity:1;fill-rule:evenodd;stroke:#7e5cc5;stroke-width:1.00000003pt;stroke-opacity:1"
         transform="matrix(0.4,0,0,0.4,2.96,0.4)" />
    </marker>
    <marker
       orient="auto"
       refY="0"
       refX="0"
       id="marker13598"
       style="overflow:visible">
      <path
         id="path13596"
         d="m -2.5,-1 c 0,2.76 -2.24,5 -5,5 -2.76,0 -5,-2.24 -5,-5 0,-2.76 2.24,-5 5,-5 2.76,0 5,2.24 5,5 z"
         style="fill:#7e5cc5;fill-opacity:1;fill-rule:evenodd;stroke:#7e5cc5;stroke-width:1.00000003pt;stroke-opacity:1"
         transform="matrix(0.4,0,0,0.4,2.96,0.4)" />
    </marker>
    <marker
       style="overflow:visible"
       id="marker14221"
       refX="0"
       refY="0"
       orient="auto">
      <path
         transform="matrix(0.4,0,0,0.4,2.96,0.4)"
         style="fill:#7e5cc5;fill-opacity:1;fill-rule:evenodd;stroke:#7e5cc5;stroke-width:1.00000003pt;stroke-opacity:1"
         d="m -2.5,-1 c 0,2.76 -2.24,5 -5,5 -2.76,0 -5,-2.24 -5,-5 0,-2.76 2.24,-5 5,-5 2.76,0 5,2.24 5,5 z"
         id="path14219" />
    </marker>
    <marker
       style="overflow:visible"
       id="marker14441"
       refX="0"
       refY="0"
       orient="auto">
      <path
         transform="matrix(0.4,0,0,0.4,2.96,0.4)"
         style="fill:#7e5cc5;fill-opacity:1;fill-rule:evenodd;stroke:#7e5cc5;stroke-width:1.00000003pt;stroke-opacity:1"
         d="m -2.5,-1 c 0,2.76 -2.24,5 -5,5 -2.76,0 -5,-2.24 -5,-5 0,-2.76 2.24,-5 5,-5 2.76,0 5,2.24 5,5 z"
         id="path14439" />
    </marker>
    <marker
       style="overflow:visible"
       id="marker9340"
       refX="0"
       refY="0"
       orient="auto">
      <path
         transform="matrix(0.4,0,0,0.4,2.96,0.4)"
         style="fill:#7e5cc5;fill-opacity:1;fill-rule:evenodd;stroke:#7e5cc5;stroke-width:1.00000003pt;stroke-opacity:1"
         d="m -2.5,-1 c 0,2.76 -2.24,5 -5,5 -2.76,0 -5,-2.24 -5,-5 0,-2.76 2.24,-5 5,-5 2.76,0 5,2.24 5,5 z"
         id="path9338" />
    </marker>
    <marker
       orient="auto"
       refY="0"
       refX="0"
       id="marker9500"
       style="overflow:visible">
      <path
         id="path9498"
         d="m -2.5,-1 c 0,2.76 -2.24,5 -5,5 -2.76,0 -5,-2.24 -5,-5 0,-2.76 2.24,-5 5,-5 2.76,0 5,2.24 5,5 z"
         style="fill:#7e5cc5;fill-opacity:1;fill-rule:evenodd;stroke:#7e5cc5;stroke-width:1.00000003pt;stroke-opacity:1"
         transform="matrix(0.4,0,0,0.4,2.96,0.4)" />
    </marker>
    <marker
       style="overflow:visible"
       id="marker10628"
       refX="0"
       refY="0"
       orient="auto">
      <path
         transform="matrix(0.4,0,0,0.4,2.96,0.4)"
         style="fill:#7e5cc5;fill-opacity:1;fill-rule:evenodd;stroke:#7e5cc5;stroke-width:1.00000003pt;stroke-opacity:1"
         d="m -2.5,-1 c 0,2.76 -2.24,5 -5,5 -2.76,0 -5,-2.24 -5,-5 0,-2.76 2.24,-5 5,-5 2.76,0 5,2.24 5,5 z"
         id="path10626" />
    </marker>
    <marker
       orient="auto"
       refY="0"
       refX="0"
       id="marker10812"
       style="overflow:visible">
      <path
         id="path10810"
         d="m -2.5,-1 c 0,2.76 -2.24,5 -5,5 -2.76,0 -5,-2.24 -5,-5 0,-2.76 2.24,-5 5,-5 2.76,0 5,2.24 5,5 z"
         style="fill:#7e5cc5;fill-opacity:1;fill-rule:evenodd;stroke:#7e5cc5;stroke-width:1.00000003pt;stroke-opacity:1"
         transform="matrix(0.4,0,0,0.4,2.96,0.4)" />
    </marker>
    <marker
       style="overflow:visible"
       id="marker10002"
       refX="0"
       refY="0"
       orient="auto">
      <path
         transform="matrix(0.4,0,0,0.4,2.96,0.4)"
         style="fill:#7e5cc5;fill-opacity:1;fill-rule:evenodd;stroke:#7e5cc5;stroke-width:1.00000003pt;stroke-opacity:1"
         d="m -2.5,-1 c 0,2.76 -2.24,5 -5,5 -2.76,0 -5,-2.24 -5,-5 0,-2.76 2.24,-5 5,-5 2.76,0 5,2.24 5,5 z"
         id="path10000" />
    </marker>
    <marker
       orient="auto"
       refY="0"
       refX="0"
       id="marker10174"
       style="overflow:visible">
      <path
         id="path10172"
         d="m -2.5,-1 c 0,2.76 -2.24,5 -5,5 -2.76,0 -5,-2.24 -5,-5 0,-2.76 2.24,-5 5,-5 2.76,0 5,2.24 5,5 z"
         style="fill:#7e5cc5;fill-opacity:1;fill-rule:evenodd;stroke:#7e5cc5;stroke-width:1.00000003pt;stroke-opacity:1"
         transform="matrix(0.4,0,0,0.4,2.96,0.4)" />
    </marker>
    <marker
       style="overflow:visible"
       id="marker20525"
       refX="0"
       refY="0"
       orient="auto">
      <path
         transform="matrix(0.4,0,0,0.4,2.96,0.4)"
         style="fill:#7e5cc5;fill-opacity:1;fill-rule:evenodd;stroke:#7e5cc5;stroke-width:1.00000003pt;stroke-opacity:1"
         d="m -2.5,-1 c 0,2.76 -2.24,5 -5,5 -2.76,0 -5,-2.24 -5,-5 0,-2.76 2.24,-5 5,-5 2.76,0 5,2.24 5,5 z"
         id="path20523" />
    </marker>
    <marker
       orient="auto"
       refY="0"
       refX="0"
       id="marker20793"
       style="overflow:visible">
      <path
         id="path20791"
         d="m -2.5,-1 c 0,2.76 -2.24,5 -5,5 -2.76,0 -5,-2.24 -5,-5 0,-2.76 2.24,-5 5,-5 2.76,0 5,2.24 5,5 z"
         style="fill:#7e5cc5;fill-opacity:1;fill-rule:evenodd;stroke:#7e5cc5;stroke-width:1.00000003pt;stroke-opacity:1"
         transform="matrix(0.4,0,0,0.4,2.96,0.4)" />
    </marker>
    <marker
       style="overflow:visible"
       id="marker21067"
       refX="0"
       refY="0"
       orient="auto">
      <path
         transform="matrix(0.4,0,0,0.4,2.96,0.4)"
         style="fill:#7e5cc5;fill-opacity:1;fill-rule:evenodd;stroke:#7e5cc5;stroke-width:1.00000003pt;stroke-opacity:1"
         d="m -2.5,-1 c 0,2.76 -2.24,5 -5,5 -2.76,0 -5,-2.24 -5,-5 0,-2.76 2.24,-5 5,-5 2.76,0 5,2.24 5,5 z"
         id="path21065" />
    </marker>
    <marker
       orient="auto"
       refY="0"
       refX="0"
       id="marker21347"
       style="overflow:visible">
      <path
         id="path21345"
         d="m -2.5,-1 c 0,2.76 -2.24,5 -5,5 -2.76,0 -5,-2.24 -5,-5 0,-2.76 2.24,-5 5,-5 2.76,0 5,2.24 5,5 z"
         style="fill:#7e5cc5;fill-opacity:1;fill-rule:evenodd;stroke:#7e5cc5;stroke-width:1.00000003pt;stroke-opacity:1"
         transform="matrix(0.4,0,0,0.4,2.96,0.4)" />
    </marker>
    <marker
       style="overflow:visible"
       id="marker14679"
       refX="0"
       refY="0"
       orient="auto">
      <path
         transform="matrix(0.4,0,0,0.4,2.96,0.4)"
         style="fill:#7e5cc5;fill-opacity:1;fill-rule:evenodd;stroke:#7e5cc5;stroke-width:1.00000003pt;stroke-opacity:1"
         d="m -2.5,-1 c 0,2.76 -2.24,5 -5,5 -2.76,0 -5,-2.24 -5,-5 0,-2.76 2.24,-5 5,-5 2.76,0 5,2.24 5,5 z"
         id="path14677" />
    </marker>
    <marker
       orient="auto"
       refY="0"
       refX="0"
       id="marker14911"
       style="overflow:visible">
      <path
         id="path14909"
         d="m -2.5,-1 c 0,2.76 -2.24,5 -5,5 -2.76,0 -5,-2.24 -5,-5 0,-2.76 2.24,-5 5,-5 2.76,0 5,2.24 5,5 z"
         style="fill:#7e5cc5;fill-opacity:1;fill-rule:evenodd;stroke:#7e5cc5;stroke-width:1.00000003pt;stroke-opacity:1"
         transform="matrix(0.4,0,0,0.4,2.96,0.4)" />
    </marker>
    <marker
       style="overflow:visible"
       id="marker9026"
       refX="0"
       refY="0"
       orient="auto">
      <path
         transform="matrix(0.4,0,0,0.4,2.96,0.4)"
         style="fill:#7e5cc5;fill-opacity:1;fill-rule:evenodd;stroke:#7e5cc5;stroke-width:1.00000003pt;stroke-opacity:1"
         d="m -2.5,-1 c 0,2.76 -2.24,5 -5,5 -2.76,0 -5,-2.24 -5,-5 0,-2.76 2.24,-5 5,-5 2.76,0 5,2.24 5,5 z"
         id="path9024" />
    </marker>
    <marker
       style="overflow:visible"
       id="marker9174"
       refX="0"
       refY="0"
       orient="auto">
      <path
         transform="matrix(0.4,0,0,0.4,2.96,0.4)"
         style="fill:#7e5cc5;fill-opacity:1;fill-rule:evenodd;stroke:#7e5cc5;stroke-width:1.00000003pt;stroke-opacity:1"
         d="m -2.5,-1 c 0,2.76 -2.24,5 -5,5 -2.76,0 -5,-2.24 -5,-5 0,-2.76 2.24,-5 5,-5 2.76,0 5,2.24 5,5 z"
         id="path9172" />
    </marker>
  </defs>
  <metadata
     id="metadata5">
    <rdf:RDF>
      <cc:Work
         rdf:about="">
        <dc:format>image/svg+xml</dc:format>
        <dc:type
           rdf:resource="http://purl.org/dc/dcmitype/StillImage" />
        <dc:title>Profile Transparency</dc:title>
      </cc:Work>
    </rdf:RDF>
  </metadata>
  <g
     style="display:inline"
     id="g1899">
    <g
       style="display:inline"
       id="g1893">
      <g
         style="display:none"
         id="layer2">
        <g
           style="display:inline"
           id="g1887">
          <rect
             style="display:inline;opacity:1;fill:url(#linearGradient7432);fill-opacity:1;fill-rule:nonzero;stroke:none;stroke-width:0.01001635;stroke-linecap:round;stroke-linejoin:round;stroke-miterlimit:4;stroke-dasharray:0.01001635, 0.01001635;stroke-dashoffset:0;stroke-opacity:1"
             id="rect818"
             width="318.33569"
             height="169.9536"
             x="0"
             y="-169.7928"
             transform="scale(1,-1)" />
        </g>
      </g>
      <g
         style="display:inline"
         transform="translate(22.326604,3.7211006)"
         id="g2276">
        <path
           id="path6663"
           d="m 68.703041,12.462791 c -16.127101,-0.03824 -33.826944,1.583343 -46.395663,10.719394 -4.535189,3.004779 -7.889345,8.253375 -5.059007,12.930057 1.819776,3.647203 8.186627,4.687259 8.380803,9.112442 1.27027,7.419001 -1.066607,14.962108 0.389634,22.346933 1.952075,2.688749 0.962884,5.816873 -0.578169,8.473348 -2.318804,4.865801 -6.53587,9.393042 -6.868929,14.733096 1.324621,1.86371 4.785381,1.78142 7.035959,2.5356 2.523969,0.44518 6.831686,0.71551 6.393975,3.66516 -1.351207,2.62479 -0.414438,5.343749 1.032451,7.778239 0.427606,1.37181 0.10988,2.85976 1.64653,3.86626 1.475581,3.93307 -0.30338,8.45003 1.95717,12.18923 4.804876,3.84163 12.529526,2.84468 17.923425,0.41013 5.218901,-1.75192 10.912272,-5.23104 16.74808,-3.41835 4.404589,2.66663 5.804559,7.42747 8.707599,11.085 1.40936,2.16922 3.13108,4.2664 5.2646,5.88527 2.54022,3.51242 2.55468,8.42021 6.65975,11.02089 10.318681,-7.211 16.481721,-17.41052 24.714201,-26.08348 5.44788,-5.86471 11.84253,-11.58175 19.99452,-14.88862 1.9226,-0.7925 6.1333,-0.42877 5.90113,-2.97801 -4.71088,-5.552819 -11.19578,-10.407139 -13.81238,-17.015992 -1.30225,-3.75158 0.13816,-7.513053 1.9787,-10.931695 4.14645,-12.062036 1.84532,-24.764595 -0.17326,-36.951019 C 127.74277,26.749784 116.41819,19.524362 104.80494,16.388092 93.380909,13.402385 81.368079,12.080776 69.388042,12.461812 l -0.45965,6.4e-4 z M 138.61882,101.4031 c 2.02658,0.89117 -1.25128,0.73537 0,0 z"
           style="display:inline;opacity:1;fill:url(#linearGradient6729);fill-opacity:1;fill-rule:nonzero;stroke:#452b43;stroke-width:0;stroke-linejoin:round;stroke-miterlimit:4;stroke-dasharray:none;stroke-dashoffset:0;stroke-opacity:1" />
        <g
           style="display:inline;opacity:0.77100004"
           transform="matrix(1.4326258,0,0,1.1073914,-23.036449,-57.601342)"
           id="g26418">
          <g
             id="g26186"
             transform="translate(-82.256036,1.5139148)"
             style="fill:none;fill-opacity:1;stroke:#7e5cc5;stroke-width:1;stroke-linejoin:round;stroke-miterlimit:4;stroke-dasharray:none;stroke-opacity:1">
            <path
               id="path8968"
               d="m 151.45552,96.775144 13.93359,-7.882073 -3.4223,-12.106866"
               style="display:inline;fill:none;fill-opacity:1;stroke:#7e5cc5;stroke-width:1;stroke-linecap:butt;stroke-linejoin:round;stroke-miterlimit:4;stroke-dasharray:none;stroke-opacity:1;marker-start:url(#marker15739);marker-end:url(#marker15995)" />
            <path
               style="display:inline;fill:none;fill-opacity:1;stroke:#7e5cc5;stroke-width:1;stroke-linecap:butt;stroke-linejoin:round;stroke-miterlimit:4;stroke-dasharray:none;stroke-opacity:1;marker-start:url(#marker15209);marker-end:url(#marker15453)"
               d="m 125.29613,119.02083 8.87698,12.9875 0.81628,8.86063 13.26447,1.33516"
               id="path8972" />
            <path
               style="display:inline;fill:none;fill-opacity:1;stroke:#7e5cc5;stroke-width:1;stroke-linecap:butt;stroke-linejoin:round;stroke-miterlimit:4;stroke-dasharray:none;stroke-opacity:1;marker-start:url(#marker1992);marker-end:url(#marker2114)"
               d="m 136.2138,108.21815 19.48855,-0.48551 7.34648,-8.739254 8.64164,-0.371571"
               id="path8974" />
            <path
               style="fill:none;fill-opacity:1;stroke:#7e5cc5;stroke-width:1;stroke-linecap:butt;stroke-linejoin:round;stroke-miterlimit:4;stroke-dasharray:none;stroke-opacity:1;marker-start:url(#marker11554);marker-end:url(#marker13598)"
               d="m 136.11176,76.781123 4.89765,8.860628 13.06039,-2.30619 0.81628,-5.583408"
               id="path8978" />
            <path
               style="display:inline;fill:none;fill-opacity:1;stroke:#7e5cc5;stroke-width:1;stroke-linecap:butt;stroke-linejoin:round;stroke-miterlimit:4;stroke-dasharray:none;stroke-dashoffset:0;stroke-opacity:1;marker-start:url(#marker14221);marker-end:url(#marker14441)"
               d="m 126.52054,84.185212 4.89765,-12.501985 15.10108,-0.242758 23.05976,0.485517 8.16274,25.974998 5.66358,12.134826 -4.10726,9.1917"
               id="path8960" />
            <path
               style="display:inline;fill:none;fill-opacity:1;stroke:#7e5cc5;stroke-width:1;stroke-linecap:butt;stroke-linejoin:round;stroke-miterlimit:4;stroke-dasharray:none;stroke-opacity:1;marker-start:url(#marker9340);marker-end:url(#marker9500)"
               d="m 168.35461,120.356 6.8363,7.03995 -8.16275,9.10339 22.53188,22.96658"
               id="path8962" />
            <path
               id="path8964"
               d="m 177.44468,169.49962 -24.46346,-27.8276 10.1014,-11.40957 -9.28512,-9.46752"
               style="display:inline;fill:none;fill-opacity:1;stroke:#7e5cc5;stroke-width:1;stroke-linecap:butt;stroke-linejoin:round;stroke-miterlimit:4;stroke-dasharray:none;stroke-opacity:1;marker-start:url(#marker10628);marker-end:url(#marker10812)" />
            <path
               style="display:inline;fill:none;fill-opacity:1;stroke:#7e5cc5;stroke-width:1;stroke-linecap:butt;stroke-linejoin:round;stroke-miterlimit:4;stroke-dasharray:none;stroke-opacity:1;marker-start:url(#marker10002);marker-end:url(#marker10174)"
               d="m 183.29029,164.50583 -24.08498,-24.16897 8.06072,-9.83165 -7.75462,-16.26471"
               id="path8966" />
            <g
               id="g25911"
               style="fill:none;fill-opacity:1;stroke:#7e5cc5;stroke-width:1;stroke-linejoin:round;stroke-miterlimit:4;stroke-dasharray:none;stroke-opacity:1">
              <path
                 id="path8970"
                 d="m 134.17311,86.734158 -7.24444,22.576402 6.63223,9.71027 10.7136,-2.1848"
                 style="display:inline;fill:none;fill-opacity:1;stroke:#7e5cc5;stroke-width:1;stroke-linecap:butt;stroke-linejoin:round;stroke-miterlimit:4;stroke-dasharray:none;stroke-opacity:1;marker-start:url(#marker20525);marker-end:url(#marker20793)" />
              <path
                 id="path8976"
                 d="m 146.68629,90.375516 -12.55022,3.641353 -1.02035,5.219266 11.52989,2.548955"
                 style="fill:none;fill-opacity:1;stroke:#7e5cc5;stroke-width:1;stroke-linecap:butt;stroke-linejoin:round;stroke-miterlimit:4;stroke-dasharray:none;stroke-opacity:1;marker-start:url(#marker21067);marker-end:url(#marker21347)" />
              <path
                 id="path8980"
                 d="m 137.64227,126.5463 2.75494,8.37512 9.99936,-2.06344"
                 style="fill:none;fill-opacity:1;stroke:#7e5cc5;stroke-width:1;stroke-linecap:butt;stroke-linejoin:round;stroke-miterlimit:4;stroke-dasharray:none;stroke-opacity:1;marker-start:url(#marker14679);marker-end:url(#marker14911)" />
            </g>
            <path
               style="fill:none;fill-opacity:1;stroke:#7e5cc5;stroke-width:1;stroke-linecap:butt;stroke-linejoin:round;stroke-miterlimit:4;stroke-dasharray:none;stroke-opacity:1;marker-start:url(#marker9026);marker-end:url(#marker9174)"
               d="m 125.80629,92.31757 -4.38747,20.14883"
               id="path8982" />
          </g>
        </g>
      </g>
    </g>
  </g>
</svg>
